<svg width="34" height="34" viewBox="0 0 34 34" fill="none" xmlns="http://www.w3.org/2000/svg">
<path d="M25.5 11.3333C25.5 16.0277 21.6944 19.8333 17 19.8333C12.3056 19.8333 8.5 16.0277 8.5 11.3333C8.5 6.63883 12.3056 2.83325 17 2.83325C21.6944 2.83325 25.5 6.63883 25.5 11.3333Z" fill="#C2B4A3"/>
<path d="M7.12947 15.2766C4.56268 16.7394 2.83203 19.501 2.83203 22.6667C2.83203 27.3611 6.63761 31.1667 11.332 31.1667C16.0265 31.1667 19.832 27.3611 19.832 22.6667C19.832 22.3036 19.8093 21.9458 19.7651 21.5947C18.883 21.8319 17.9556 21.9584 16.9987 21.9584C12.524 21.9584 8.69536 19.1922 7.12947 15.2766Z" fill="#C2B4A3"/>
<path d="M21.7991 20.816C21.9046 21.417 21.9597 22.0354 21.9597 22.6667C21.9597 25.6284 20.7478 28.3071 18.793 30.234C19.955 30.8302 21.2722 31.1667 22.668 31.1667C27.3624 31.1667 31.168 27.3611 31.168 22.6667C31.168 19.501 29.4374 16.7394 26.8706 15.2766C25.9088 17.6816 24.0935 19.6529 21.7991 20.816Z" fill="#C2B4A3"/>
</svg>
