<svg width="35" height="34" viewBox="0 0 35 34" fill="none" xmlns="http://www.w3.org/2000/svg">
<path d="M14.4619 16.1625C14.4619 16.1625 17.426 15.9373 17.426 12.3906C17.426 8.84681 15.4157 7.0999 12.3429 7.0999L1.81641 7.08325V26.6675H12.5877C12.5877 26.6675 17.9734 26.8379 17.9734 20.7922C17.9734 20.7922 18.369 16.1625 14.4619 16.1625ZM5.73325 10.0209H11.1189C11.1189 10.0209 12.9618 10.0512 12.9618 12.4405C12.9618 14.9169 11.1189 14.9169 11.1189 14.9169H5.73325V10.0209ZM11.6085 23.7299H5.73325V17.8546H11.6085C11.6085 17.8546 14.5462 17.8849 14.5462 20.7922C14.5462 23.6995 12.0315 23.7299 11.6085 23.7299Z" fill="#0F0F0F"/>
<path d="M26.2974 11.9795C18.9406 11.9795 18.9533 19.3236 18.9533 19.3236C18.9533 19.3236 18.4637 26.6677 26.2974 26.6677C26.2974 26.6677 33.1519 26.6677 33.1519 20.7924H29.235C29.235 20.7924 29.235 23.73 26.2974 23.73C26.2974 23.73 23.3598 23.73 23.3598 19.8132C23.3598 19.8132 31.1935 19.8132 33.1519 19.8132C33.1519 17.8548 33.1519 11.9795 26.2974 11.9795ZM23.3598 17.8548C23.3598 17.8548 23.2951 14.9171 26.2974 14.9171C29.2987 14.9171 29.235 17.8548 29.235 17.8548H23.3598Z" fill="#0F0F0F"/>
<path d="M30.2146 9.04175H22.3809V11.0002H30.2146V9.04175Z" fill="#0F0F0F"/>
</svg>
