<svg width="34" height="34" viewBox="0 0 34 34" fill="none" xmlns="http://www.w3.org/2000/svg">
<path d="M31.1653 11.5632L31.1653 11.666C31.1652 12.8854 31.1652 13.4951 30.8717 13.9939C30.5782 14.4927 30.0452 14.7888 28.9793 15.381L27.8554 16.0054C28.6299 13.3872 28.8883 10.5741 28.9838 8.16838C28.9879 8.06523 28.9925 7.96081 28.9971 7.85529L29.0004 7.78137C29.923 8.10178 30.4411 8.34065 30.7642 8.78903C31.1653 9.34556 31.1653 10.0848 31.1653 11.5632Z" fill="#C2B4A3"/>
<path d="M2.83203 11.5632L2.83204 11.666C2.83207 12.8854 2.83209 13.4951 3.1256 13.9939C3.41912 14.4927 3.95209 14.7888 5.01802 15.381L6.14251 16.0057C5.36797 13.3874 5.10957 10.5742 5.01405 8.16838C5.00996 8.06523 5.00534 7.96081 5.00068 7.85529L4.99741 7.78119C4.07446 8.10169 3.55631 8.34057 3.23308 8.78903C2.83197 9.34556 2.83199 10.0848 2.83203 11.5632Z" fill="#C2B4A3"/>
<path fill-rule="evenodd" clip-rule="evenodd" d="M16.9989 2.83325C19.5256 2.83325 21.6072 3.05579 23.1996 3.32447C24.8128 3.59665 25.6194 3.73274 26.2934 4.56276C26.9673 5.39279 26.9317 6.28988 26.8604 8.08408C26.6159 14.2437 25.2866 21.9374 18.0612 22.618V27.6249H20.0873C20.7626 27.6249 21.344 28.1016 21.4765 28.7638L21.7445 30.1041H25.4987C26.0855 30.1041 26.5612 30.5798 26.5612 31.1666C26.5612 31.7534 26.0855 32.2291 25.4987 32.2291H8.4987C7.9119 32.2291 7.4362 31.7534 7.4362 31.1666C7.4362 30.5798 7.9119 30.1041 8.4987 30.1041H12.2529L12.5209 28.7638C12.6534 28.1016 13.2348 27.6249 13.9101 27.6249H15.9362V22.6179C8.71114 21.9371 7.38192 14.2436 7.13738 8.08408C7.06615 6.28988 7.03053 5.39278 7.70447 4.56276C8.3784 3.73274 9.185 3.59665 10.7982 3.32447C12.3906 3.05579 14.4722 2.83325 16.9989 2.83325ZM18.3479 8.78165L18.2086 8.53181C17.6703 7.56611 17.4011 7.08325 16.9987 7.08325C16.5963 7.08325 16.3271 7.56611 15.7888 8.53181L15.6495 8.78165C15.4965 9.05607 15.4201 9.19329 15.3008 9.28382C15.1815 9.37435 15.033 9.40796 14.7359 9.47517L14.4655 9.53636C13.4201 9.77289 12.8975 9.89115 12.7731 10.291C12.6487 10.6909 13.0051 11.1076 13.7177 11.941L13.9021 12.1566C14.1046 12.3934 14.2059 12.5118 14.2514 12.6583C14.297 12.8048 14.2817 12.9628 14.2511 13.2787L14.2232 13.5664C14.1154 14.6783 14.0616 15.2342 14.3871 15.4813C14.7127 15.7285 15.2021 15.5032 16.1809 15.0525L16.4341 14.9359C16.7122 14.8078 16.8513 14.7438 16.9987 14.7438C17.1461 14.7438 17.2852 14.8078 17.5633 14.9359L17.8165 15.0525C18.7953 15.5032 19.2847 15.7285 19.6103 15.4813C19.9358 15.2342 19.8819 14.6783 19.7742 13.5664L19.7463 13.2787C19.7157 12.9628 19.7004 12.8048 19.746 12.6583C19.7915 12.5118 19.8928 12.3934 20.0953 12.1566L20.2797 11.941C20.9923 11.1076 21.3486 10.6909 21.2243 10.291C21.0999 9.89115 20.5773 9.77289 19.5319 9.53636L19.2614 9.47517C18.9644 9.40796 18.8159 9.37435 18.6966 9.28382C18.5773 9.19329 18.5008 9.05607 18.3479 8.78165Z" fill="#C2B4A3"/>
</svg>
