<svg width="34" height="34" viewBox="0 0 34 34" fill="none" xmlns="http://www.w3.org/2000/svg">
<path d="M12.277 16.9999C12.277 14.392 14.3918 12.2773 17.0013 12.2773C19.6108 12.2773 21.7267 14.392 21.7267 16.9999C21.7267 19.6078 19.6108 21.7225 17.0013 21.7225C14.3918 21.7225 12.277 19.6078 12.277 16.9999ZM9.72254 16.9999C9.72254 21.0175 12.9812 24.2743 17.0013 24.2743C21.0214 24.2743 24.2801 21.0175 24.2801 16.9999C24.2801 12.9822 21.0214 9.72549 17.0013 9.72549C12.9812 9.72549 9.72254 12.9822 9.72254 16.9999ZM22.8672 9.43705C22.8671 9.77328 22.9667 10.102 23.1535 10.3816C23.3403 10.6613 23.6059 10.8793 23.9166 11.0081C24.2274 11.1369 24.5694 11.1707 24.8994 11.1052C25.2294 11.0397 25.5325 10.8779 25.7705 10.6403C26.0085 10.4026 26.1706 10.0998 26.2364 9.77005C26.3022 9.44031 26.2686 9.09849 26.14 8.7878C26.0114 8.47712 25.7935 8.21153 25.5138 8.02462C25.2342 7.83771 24.9053 7.73787 24.5689 7.73774H24.5682C24.1173 7.73795 23.6848 7.91703 23.3659 8.23565C23.0469 8.55427 22.8676 8.98637 22.8672 9.43705ZM11.2745 28.5312C9.89253 28.4683 9.14136 28.2382 8.64217 28.0438C7.98036 27.7864 7.50816 27.4797 7.01169 26.9842C6.51522 26.4887 6.2079 26.0172 5.95139 25.3558C5.75679 24.8571 5.52659 24.1062 5.46377 22.725C5.39505 21.2317 5.38132 20.7832 5.38132 17C5.38132 13.2168 5.39618 12.7695 5.46377 11.275C5.5267 9.89379 5.75861 9.14431 5.95139 8.64418C6.20904 7.98276 6.5159 7.51085 7.01169 7.01467C7.50748 6.5185 7.97923 6.21137 8.64217 5.95501C9.14113 5.76053 9.89253 5.53046 11.2745 5.46768C12.7687 5.399 13.2176 5.38528 17.0013 5.38528C20.785 5.38528 21.2343 5.40013 22.7298 5.46768C24.1118 5.53058 24.8617 5.76234 25.3621 5.95501C26.0239 6.21137 26.4961 6.51918 26.9926 7.01467C27.4891 7.51017 27.7953 7.98276 28.0529 8.64418C28.2475 9.14284 28.4777 9.89379 28.5405 11.275C28.6093 12.7695 28.623 13.2168 28.623 17C28.623 20.7832 28.6093 21.2305 28.5405 22.725C28.4776 24.1062 28.2463 24.8569 28.0529 25.3558C27.7953 26.0172 27.4884 26.4891 26.9926 26.9842C26.4968 27.4792 26.0239 27.7864 25.3621 28.0438C24.8632 28.2383 24.1118 28.4684 22.7298 28.5312C21.2356 28.5999 20.7867 28.6136 17.0013 28.6136C13.2159 28.6136 12.7683 28.5999 11.2745 28.5312ZM11.1572 2.91905C9.64815 2.98772 8.61699 3.22686 7.71648 3.57706C6.78387 3.9387 5.99437 4.42388 5.20544 5.21109C4.41651 5.9983 3.93229 6.78857 3.57042 7.72063C3.22001 8.62117 2.98074 9.65114 2.91202 11.1593C2.84216 12.6698 2.82617 13.1527 2.82617 16.9999C2.82617 20.8471 2.84216 21.33 2.91202 22.8405C2.98074 24.3487 3.22001 25.3786 3.57042 26.2791C3.93229 27.2106 4.41662 28.0018 5.20544 28.7887C5.99426 29.5755 6.78387 30.06 7.71648 30.4227C8.6187 30.7729 9.64815 31.012 11.1572 31.0807C12.6694 31.1494 13.1518 31.1665 17.0013 31.1665C20.8508 31.1665 21.334 31.1505 22.8454 31.0807C24.3546 31.012 25.385 30.7729 26.2861 30.4227C27.2182 30.06 28.0082 29.5759 28.7972 28.7887C29.5861 28.0015 30.0693 27.2106 30.4322 26.2791C30.7826 25.3786 31.023 24.3486 31.0906 22.8405C31.1593 21.3289 31.1753 20.8471 31.1753 16.9999C31.1753 13.1527 31.1593 12.6698 31.0906 11.1593C31.0219 9.65103 30.7826 8.6206 30.4322 7.72063C30.0693 6.78914 29.5848 5.99955 28.7972 5.21109C28.0095 4.42263 27.2182 3.9387 26.2873 3.57706C25.385 3.22686 24.3544 2.98659 22.8466 2.91905C21.3351 2.85037 20.8519 2.83325 17.0024 2.83325C13.1529 2.83325 12.6694 2.84923 11.1572 2.91905Z" fill="#0F0F0F"/>
<path d="M12.277 16.9999C12.277 14.392 14.3918 12.2773 17.0013 12.2773C19.6108 12.2773 21.7267 14.392 21.7267 16.9999C21.7267 19.6078 19.6108 21.7225 17.0013 21.7225C14.3918 21.7225 12.277 19.6078 12.277 16.9999ZM9.72254 16.9999C9.72254 21.0175 12.9812 24.2743 17.0013 24.2743C21.0214 24.2743 24.2801 21.0175 24.2801 16.9999C24.2801 12.9822 21.0214 9.72549 17.0013 9.72549C12.9812 9.72549 9.72254 12.9822 9.72254 16.9999ZM22.8672 9.43705C22.8671 9.77328 22.9667 10.102 23.1535 10.3816C23.3403 10.6613 23.6059 10.8793 23.9166 11.0081C24.2274 11.1369 24.5694 11.1707 24.8994 11.1052C25.2294 11.0397 25.5325 10.8779 25.7705 10.6403C26.0085 10.4026 26.1706 10.0998 26.2364 9.77005C26.3022 9.44031 26.2686 9.09849 26.14 8.7878C26.0114 8.47712 25.7935 8.21153 25.5138 8.02462C25.2342 7.83771 24.9053 7.73787 24.5689 7.73774H24.5682C24.1173 7.73795 23.6848 7.91703 23.3659 8.23565C23.0469 8.55427 22.8676 8.98637 22.8672 9.43705ZM11.2745 28.5312C9.89253 28.4683 9.14136 28.2382 8.64217 28.0438C7.98036 27.7864 7.50816 27.4797 7.01169 26.9842C6.51522 26.4887 6.2079 26.0172 5.95139 25.3558C5.75679 24.8571 5.52659 24.1062 5.46377 22.725C5.39505 21.2317 5.38132 20.7832 5.38132 17C5.38132 13.2168 5.39618 12.7695 5.46377 11.275C5.5267 9.89379 5.75861 9.14431 5.95139 8.64418C6.20904 7.98276 6.5159 7.51085 7.01169 7.01467C7.50748 6.5185 7.97923 6.21137 8.64217 5.95501C9.14113 5.76053 9.89253 5.53046 11.2745 5.46768C12.7687 5.399 13.2176 5.38528 17.0013 5.38528C20.785 5.38528 21.2343 5.40013 22.7298 5.46768C24.1118 5.53058 24.8617 5.76234 25.3621 5.95501C26.0239 6.21137 26.4961 6.51918 26.9926 7.01467C27.4891 7.51017 27.7953 7.98276 28.0529 8.64418C28.2475 9.14284 28.4777 9.89379 28.5405 11.275C28.6093 12.7695 28.623 13.2168 28.623 17C28.623 20.7832 28.6093 21.2305 28.5405 22.725C28.4776 24.1062 28.2463 24.8569 28.0529 25.3558C27.7953 26.0172 27.4884 26.4891 26.9926 26.9842C26.4968 27.4792 26.0239 27.7864 25.3621 28.0438C24.8632 28.2383 24.1118 28.4684 22.7298 28.5312C21.2356 28.5999 20.7867 28.6136 17.0013 28.6136C13.2159 28.6136 12.7683 28.5999 11.2745 28.5312ZM11.1572 2.91905C9.64815 2.98772 8.61699 3.22686 7.71648 3.57706C6.78387 3.9387 5.99437 4.42388 5.20544 5.21109C4.41651 5.9983 3.93229 6.78857 3.57042 7.72063C3.22001 8.62117 2.98074 9.65114 2.91202 11.1593C2.84216 12.6698 2.82617 13.1527 2.82617 16.9999C2.82617 20.8471 2.84216 21.33 2.91202 22.8405C2.98074 24.3487 3.22001 25.3786 3.57042 26.2791C3.93229 27.2106 4.41662 28.0018 5.20544 28.7887C5.99426 29.5755 6.78387 30.06 7.71648 30.4227C8.6187 30.7729 9.64815 31.012 11.1572 31.0807C12.6694 31.1494 13.1518 31.1665 17.0013 31.1665C20.8508 31.1665 21.334 31.1505 22.8454 31.0807C24.3546 31.012 25.385 30.7729 26.2861 30.4227C27.2182 30.06 28.0082 29.5759 28.7972 28.7887C29.5861 28.0015 30.0693 27.2106 30.4322 26.2791C30.7826 25.3786 31.023 24.3486 31.0906 22.8405C31.1593 21.3289 31.1753 20.8471 31.1753 16.9999C31.1753 13.1527 31.1593 12.6698 31.0906 11.1593C31.0219 9.65103 30.7826 8.6206 30.4322 7.72063C30.0693 6.78914 29.5848 5.99955 28.7972 5.21109C28.0095 4.42263 27.2182 3.9387 26.2873 3.57706C25.385 3.22686 24.3544 2.98659 22.8466 2.91905C21.3351 2.85037 20.8519 2.83325 17.0024 2.83325C13.1529 2.83325 12.6694 2.84923 11.1572 2.91905Z" fill="#0F0F0F"/>
</svg>
