<svg width="34" height="34" viewBox="0 0 34 34" fill="none" xmlns="http://www.w3.org/2000/svg">
<path d="M5.44641 5.44633C3.8512 7.04155 3.8512 9.62791 5.44641 11.2231L7.69571 13.4724C7.7126 13.4529 7.73031 13.4338 7.74886 13.4153L13.4155 7.74862C13.434 7.73013 13.453 7.71246 13.4725 7.69562L11.2232 5.44633C9.62799 3.85111 7.04163 3.85111 5.44641 5.44633Z" fill="#C2B4A3"/>
<path d="M14.9711 9.19425C14.9543 9.21372 14.9366 9.23273 14.9181 9.25122L9.25146 14.9179C9.23292 14.9364 9.21385 14.9541 9.19432 14.971L22.7768 28.5535C24.372 30.1487 26.9584 30.1487 28.5536 28.5535C30.1488 26.9583 30.1488 24.3719 28.5536 22.7767L14.9711 9.19425Z" fill="#C2B4A3"/>
<path d="M22.8084 3.26844C23.0364 2.68819 23.8546 2.68819 24.0826 3.26844L24.6923 4.82009C24.7619 4.99724 24.9016 5.13747 25.0781 5.20734L26.624 5.8193C27.2021 6.04815 27.2021 6.86934 26.624 7.09819L25.0781 7.71015C24.9016 7.78002 24.7619 7.92025 24.6923 8.0974L24.0826 9.64905C23.8546 10.2293 23.0364 10.2293 22.8084 9.64906L22.1987 8.0974C22.1291 7.92025 21.9893 7.78002 21.8129 7.71015L20.2669 7.09819C19.6888 6.86934 19.6888 6.04815 20.2669 5.8193L21.8129 5.20734C21.9893 5.13747 22.1291 4.99724 22.1987 4.82009L22.8084 3.26844Z" fill="#C2B4A3"/>
<path d="M28.2868 12.9333C28.5148 12.3531 29.333 12.3531 29.561 12.9333L29.7833 13.4991C29.8529 13.6762 29.9926 13.8164 30.1691 13.8863L30.7328 14.1094C31.3109 14.3383 31.3109 15.1595 30.7328 15.3883L30.1691 15.6114C29.9926 15.6813 29.8529 15.8215 29.7833 15.9987L29.561 16.5644C29.333 17.1447 28.5148 17.1447 28.2868 16.5644L28.0645 15.9987C27.9949 15.8215 27.8552 15.6813 27.6787 15.6114L27.1151 15.3883C26.537 15.1595 26.537 14.3383 27.1151 14.1094L27.6787 13.8863C27.8552 13.8164 27.9949 13.6762 28.0645 13.4991L28.2868 12.9333Z" fill="#C2B4A3"/>
<path d="M7.27203 21.6851C7.50003 21.1049 8.3182 21.1049 8.5462 21.6851L8.7685 22.2508C8.83811 22.428 8.97783 22.5682 9.15433 22.6381L9.71798 22.8612C10.2961 23.0901 10.2961 23.9113 9.71798 24.1401L9.15433 24.3632C8.97783 24.4331 8.83811 24.5733 8.7685 24.7505L8.5462 25.3162C8.3182 25.8965 7.50003 25.8965 7.27203 25.3162L7.04973 24.7505C6.98012 24.5733 6.8404 24.4331 6.6639 24.3632L6.10025 24.1401C5.52214 23.9113 5.52214 23.0901 6.10025 22.8612L6.6639 22.6381C6.8404 22.5682 6.98012 22.428 7.04973 22.2508L7.27203 21.6851Z" fill="#C2B4A3"/>
</svg>
