<svg width="34" height="34" viewBox="0 0 34 34" fill="none" xmlns="http://www.w3.org/2000/svg">
<path fill-rule="evenodd" clip-rule="evenodd" d="M29.75 16.8599V9.10783C29.75 5.89326 29.75 4.28598 28.7481 3.40652C27.7461 2.52706 26.2147 2.79153 23.1517 3.32048L21.658 3.57844C19.3343 3.97972 18.1725 4.18036 17 4.18036C15.8275 4.18036 14.6657 3.97972 12.342 3.57844L10.8483 3.32048C7.78534 2.79153 6.25388 2.52706 5.25194 3.40652C4.25 4.28598 4.25 5.89326 4.25 9.10783V16.8599C4.25 24.9192 10.2552 28.8302 14.023 30.4909C15.045 30.9413 15.556 31.1666 17 31.1666C18.444 31.1666 18.955 30.9413 19.977 30.4909C23.7448 28.8302 29.75 24.9192 29.75 16.8599ZM10.1588 12.9484C10.3337 12.5857 10.9888 12.0893 12.0417 12.0893C13.0946 12.0893 13.7496 12.5857 13.9246 12.9484C14.1869 13.4923 14.825 13.7129 15.3499 13.4411C15.8749 13.1693 16.0877 12.508 15.8254 11.9642C15.1755 10.6165 13.6049 9.88745 12.0417 9.88745C10.4784 9.88745 8.90782 10.6165 8.25789 11.9642C7.99559 12.508 8.20848 13.1693 8.7334 13.4411C9.25831 13.7129 9.89648 13.4923 10.1588 12.9484ZM21.9583 12.0893C20.9054 12.0893 20.2504 12.5857 20.0754 12.9484C19.8131 13.4923 19.175 13.7129 18.6501 13.4411C18.1251 13.1693 17.9123 12.508 18.1746 11.9642C18.8245 10.6165 20.3951 9.88745 21.9583 9.88745C23.5216 9.88745 25.0922 10.6165 25.7421 11.9642C26.0044 12.508 25.7915 13.1693 25.2666 13.4411C24.7417 13.7129 24.1035 13.4923 23.8412 12.9484C23.6663 12.5857 23.0112 12.0893 21.9583 12.0893ZM11.3171 20.6009C10.8922 20.1816 10.8676 19.4768 11.2723 19.0365C11.6736 18.5998 12.3588 18.5973 12.7843 19.006C12.8117 19.0281 12.8785 19.0811 12.9292 19.1171C13.0719 19.2185 13.3085 19.3677 13.6468 19.5218C14.3198 19.8283 15.4139 20.1627 17 20.1627C18.5861 20.1627 19.6802 19.8283 20.3532 19.5218C20.6915 19.3677 20.9281 19.2185 21.0708 19.1171C21.1422 19.0664 21.1902 19.0275 21.2157 19.006C21.2266 18.9968 21.2334 18.9907 21.2362 18.9882L21.2372 18.9872C21.6627 18.5795 22.3267 18.6002 22.7277 19.0365C23.1324 19.4768 23.116 20.1736 22.6911 20.593L22.6893 20.5947L22.6873 20.5967L22.6829 20.6009L22.6724 20.611L22.6443 20.6372C22.6225 20.6572 22.5942 20.6823 22.5595 20.7116C22.4901 20.7703 22.3948 20.8462 22.2726 20.9331C22.0279 21.1069 21.6757 21.3246 21.2083 21.5375C20.2698 21.965 18.8848 22.3645 17 22.3645C15.1152 22.3645 13.7302 21.965 12.7917 21.5375C12.3243 21.3246 11.9721 21.1069 11.7274 20.9331C11.6052 20.8462 11.5099 20.7703 11.4405 20.7116C11.4077 20.6839 11.336 20.6187 11.3194 20.6031L11.3171 20.6009Z" fill="#C2B4A3"/>
</svg>
