<svg width="34" height="34" viewBox="0 0 34 34" fill="none" xmlns="http://www.w3.org/2000/svg">
<path d="M12.9657 7.66178C14.7601 4.44276 15.6573 2.83325 16.9987 2.83325C18.3401 2.83325 19.2373 4.44276 21.0317 7.66178L21.496 8.49458C22.0059 9.40933 22.2608 9.8667 22.6584 10.1685C23.0559 10.4703 23.551 10.5823 24.5412 10.8063L25.4427 11.0103C28.9272 11.7987 30.6695 12.1929 31.084 13.5259C31.4985 14.8588 30.3108 16.2478 27.9352 19.0256L27.3206 19.7443C26.6456 20.5337 26.3081 20.9284 26.1562 21.4167C26.0044 21.905 26.0554 22.4316 26.1575 23.4848L26.2504 24.4436C26.6095 28.1499 26.7891 30.0031 25.7039 30.8269C24.6187 31.6507 22.9874 30.8996 19.7248 29.3974L18.8808 29.0088C17.9536 28.5819 17.4901 28.3685 16.9987 28.3685C16.5073 28.3685 16.0438 28.5819 15.1166 29.0088L14.2726 29.3974C11.01 30.8996 9.3787 31.6507 8.29349 30.8269C7.20829 30.0031 7.38786 28.1499 7.74701 24.4437L7.83993 23.4848C7.94198 22.4316 7.99301 21.905 7.84117 21.4167C7.68933 20.9284 7.3518 20.5337 6.67675 19.7443L6.06217 19.0256C3.68663 16.2478 2.49887 14.8588 2.91338 13.5259C3.32789 12.1929 5.07016 11.7987 8.55471 11.0103L9.4562 10.8063C10.4464 10.5823 10.9415 10.4703 11.339 10.1685C11.7366 9.8667 11.9915 9.40933 12.5014 8.49458L12.9657 7.66178Z" fill="#C2B4A3"/>
</svg>
