<svg width="34" height="34" viewBox="0 0 34 34" fill="none" xmlns="http://www.w3.org/2000/svg">
<path d="M15.9388 9.99585C12.5308 10.5085 9.91797 13.4491 9.91797 17C9.91797 20.912 13.0893 24.0834 17.0013 24.0834C20.9133 24.0834 24.0846 20.912 24.0846 17C24.0846 13.4491 21.4718 10.5085 18.0638 9.99585V15.5834C18.0638 16.1702 17.5881 16.6459 17.0013 16.6459C16.4145 16.6459 15.9388 16.1702 15.9388 15.5834V9.99585Z" fill="#C2B4A3"/>
<path d="M18.4154 4.95841C18.4154 5.74082 17.7811 6.37508 16.9987 6.37508C16.2163 6.37508 15.582 5.74082 15.582 4.95841C15.582 4.17601 16.2163 3.54175 16.9987 3.54175C17.7811 3.54175 18.4154 4.17601 18.4154 4.95841Z" fill="#C2B4A3"/>
<path d="M29.0417 18.4166C28.2593 18.4166 27.625 17.7823 27.625 16.9999C27.625 16.2175 28.2593 15.5833 29.0417 15.5833C29.8241 15.5833 30.4583 16.2175 30.4583 16.9999C30.4583 17.7823 29.8241 18.4166 29.0417 18.4166Z" fill="#C2B4A3"/>
<path d="M4.95964 18.4166C4.17723 18.4166 3.54297 17.7823 3.54297 16.9999C3.54297 16.2175 4.17723 15.5833 4.95964 15.5833C5.74204 15.5833 6.3763 16.2175 6.3763 16.9999C6.3763 17.7823 5.74204 18.4166 4.95964 18.4166Z" fill="#C2B4A3"/>
<path d="M9.48871 7.48354C10.042 8.03678 10.042 8.93376 9.48871 9.487C8.93547 10.0402 8.03849 10.0402 7.48524 9.487C6.932 8.93376 6.932 8.03678 7.48524 7.48354C8.03849 6.93029 8.93547 6.93029 9.48871 7.48354Z" fill="#C2B4A3"/>
<path d="M26.5161 24.5131C27.0693 25.0663 27.0693 25.9633 26.5161 26.5165C25.9628 27.0698 25.0658 27.0698 24.5126 26.5165C23.9593 25.9633 23.9593 25.0663 24.5126 24.5131C25.0658 23.9598 25.9628 23.9598 26.5161 24.5131Z" fill="#C2B4A3"/>
<path d="M26.5161 9.487C25.9628 10.0402 25.0658 10.0402 24.5126 9.487C23.9593 8.93376 23.9593 8.03678 24.5126 7.48354C25.0658 6.93029 25.9628 6.93029 26.5161 7.48354C27.0693 8.03678 27.0693 8.93376 26.5161 9.487Z" fill="#C2B4A3"/>
<path d="M9.48871 26.5165C8.93547 27.0698 8.03849 27.0698 7.48524 26.5165C6.932 25.9633 6.932 25.0663 7.48524 24.5131C8.03849 23.9598 8.93547 23.9598 9.48871 24.5131C10.042 25.0663 10.042 25.9633 9.48871 26.5165Z" fill="#C2B4A3"/>
</svg>
