<svg width="35" height="34" viewBox="0 0 35 34" fill="none" xmlns="http://www.w3.org/2000/svg">
<path d="M32.8082 7.31323C31.8075 7.74387 30.7555 8.04374 29.6782 8.20544C30.1819 8.11909 30.923 7.21249 31.218 6.84554C31.6662 6.29202 32.0077 5.66013 32.2253 4.98197C32.2253 4.93161 32.2757 4.85965 32.2253 4.82368C32.2 4.80982 32.1715 4.80256 32.1426 4.80256C32.1137 4.80256 32.0852 4.80982 32.0598 4.82368C30.89 5.45716 29.645 5.94065 28.3543 6.26272C28.3093 6.27647 28.2614 6.2777 28.2158 6.26629C28.1702 6.25488 28.1285 6.23126 28.0953 6.19797C27.9948 6.07833 27.8866 5.96537 27.7715 5.85979C27.245 5.38811 26.6477 5.00205 26.0015 4.71575C25.1291 4.35784 24.1868 4.20284 23.2457 4.26245C22.3326 4.32012 21.4411 4.56504 20.6266 4.98197C19.8246 5.42155 19.1198 6.01872 18.5544 6.73761C17.9597 7.47753 17.5304 8.33623 17.2952 9.25594C17.1014 10.1308 17.0794 11.035 17.2305 11.9182C17.2305 12.0693 17.2305 12.0909 17.101 12.0693C11.9708 11.3138 7.76155 9.49338 4.32223 5.58637C4.17113 5.41369 4.09199 5.41369 3.96967 5.58637C2.47306 7.86006 3.19978 11.4577 5.07054 13.2349C5.32237 13.4723 5.5814 13.7026 5.85482 13.9184C4.99708 13.8576 4.1603 13.6251 3.39405 13.2349C3.25014 13.1414 3.171 13.1917 3.1638 13.3644C3.1434 13.6038 3.1434 13.8445 3.1638 14.0839C3.31393 15.2313 3.7661 16.3182 4.47405 17.2335C5.18201 18.1487 6.12035 18.8596 7.19313 19.2933C7.45465 19.4053 7.72714 19.4897 8.00619 19.5451C7.21214 19.7014 6.39775 19.7258 5.59579 19.6171C5.4231 19.5811 5.35835 19.6746 5.4231 19.8401C6.4808 22.7182 8.77608 23.596 10.4598 24.0853C10.69 24.1213 10.9203 24.1213 11.1793 24.1789C11.1793 24.1789 11.1793 24.1788 11.1361 24.222C10.6396 25.1286 8.63218 25.7402 7.71119 26.0568C6.03014 26.6606 4.23784 26.8914 2.45867 26.7332C2.17805 26.69 2.1133 26.6972 2.04134 26.7332C1.96939 26.7691 2.04134 26.8483 2.12049 26.9202C2.48025 27.1577 2.84001 27.3663 3.21417 27.5678C4.32802 28.1753 5.50559 28.6579 6.72544 29.0069C13.0429 30.7481 20.1517 29.4673 24.8934 24.7545C28.6205 21.0561 29.9301 15.9547 29.9301 10.8461C29.9301 10.6518 30.1675 10.5367 30.3042 10.436C31.2472 9.70125 32.0785 8.83357 32.7722 7.86006C32.8923 7.71495 32.9539 7.53018 32.9449 7.34201C32.9449 7.23408 32.9449 7.25567 32.8082 7.31323Z" fill="#0F0F0F"/>
</svg>
