<svg width="32" height="26" viewBox="0 0 32 26" fill="none" xmlns="http://www.w3.org/2000/svg">
<path d="M31.3296 3.31323C30.329 3.74387 29.277 4.04374 28.1997 4.20544C28.7034 4.11909 29.4445 3.21249 29.7395 2.84554C30.1877 2.29202 30.5292 1.66013 30.7468 0.981972C30.7468 0.931606 30.7972 0.859653 30.7468 0.823677C30.7214 0.809822 30.693 0.802562 30.6641 0.802562C30.6352 0.802562 30.6067 0.809822 30.5813 0.823677C29.4115 1.45716 28.1665 1.94065 26.8758 2.26272C26.8308 2.27647 26.7829 2.2777 26.7373 2.26629C26.6917 2.25488 26.65 2.23126 26.6168 2.19797C26.5163 2.07833 26.4081 1.96537 26.293 1.85979C25.7665 1.38811 25.1692 1.00205 24.5229 0.715749C23.6506 0.357841 22.7082 0.20284 21.7672 0.262449C20.854 0.320117 19.9625 0.565036 19.1481 0.981972C18.3461 1.42155 17.6412 2.01872 17.0759 2.73761C16.4812 3.47753 16.0518 4.33623 15.8167 5.25594C15.6228 6.13077 15.6008 7.03495 15.752 7.91818C15.752 8.06927 15.752 8.09086 15.6224 8.06927C10.4922 7.31378 6.28304 5.49338 2.84372 1.58637C2.69262 1.41369 2.61347 1.41369 2.49115 1.58637C0.994543 3.86006 1.72126 7.45768 3.59202 9.2349C3.84385 9.47235 4.10288 9.70259 4.3763 9.91845C3.51857 9.85756 2.68179 9.62512 1.91553 9.2349C1.77163 9.14136 1.69248 9.19173 1.68528 9.36442C1.66489 9.60382 1.66489 9.84453 1.68528 10.0839C1.83542 11.2313 2.28758 12.3182 2.99554 13.2335C3.70349 14.1487 4.64184 14.8596 5.71461 15.2933C5.97613 15.4053 6.24863 15.4897 6.52768 15.5451C5.73363 15.7014 4.91923 15.7258 4.11727 15.6171C3.94459 15.5811 3.87983 15.6746 3.94459 15.8401C5.00229 18.7182 7.29756 19.596 8.98125 20.0853C9.2115 20.1213 9.44174 20.1213 9.70077 20.1789C9.70077 20.1789 9.70077 20.1788 9.6576 20.222C9.16113 21.1286 7.15366 21.7402 6.23267 22.0568C4.55163 22.6606 2.75933 22.8914 0.980152 22.7332C0.699538 22.69 0.634781 22.6972 0.562829 22.7332C0.490876 22.7691 0.562829 22.8483 0.641976 22.9202C1.00174 23.1577 1.3615 23.3663 1.73565 23.5678C2.84951 24.1753 4.02707 24.6579 5.24692 25.0069C11.5643 26.7481 18.6732 25.4673 23.4149 20.7545C27.142 17.0561 28.4515 11.9547 28.4515 6.84609C28.4515 6.65181 28.689 6.53669 28.8257 6.43596C29.7686 5.70125 30.6 4.83357 31.2937 3.86006C31.4138 3.71495 31.4754 3.53018 31.4663 3.34201C31.4663 3.23408 31.4663 3.25567 31.3296 3.31323Z" fill="#C2B4A3"/>
</svg>
